<?xml version="1.0" standalone="no"?>
<!DOCTYPE svg PUBLIC "-//W3C//DTD SVG 20010904//EN"
 "http://www.w3.org/TR/2001/REC-SVG-20010904/DTD/svg10.dtd">
<svg version="1.0" xmlns="http://www.w3.org/2000/svg"
 width="720.000000pt" height="432.000000pt" viewBox="0 0 720.000000 432.000000"
 preserveAspectRatio="xMidYMid meet">

<g transform="translate(0.000000,432.000000) scale(0.100000,-0.100000)"
fill="#000000" stroke="none">
<path d="M10 2165 l0 -2155 3595 0 3595 0 0 2155 0 2155 -3595 0 -3595 0 0
-2155z m3448 1528 c-10 -2 -26 -2 -35 0 -10 3 -2 5 17 5 19 0 27 -2 18 -5z
m638 -18 c44 -18 78 -54 106 -110 19 -41 23 -64 22 -125 -1 -41 -3 -76 -4 -77
-1 -2 -3 -6 -5 -10 -16 -61 -102 -161 -157 -186 -15 -6 -28 -16 -28 -21 0 -9
15 -60 28 -96 3 -8 7 -19 7 -25 1 -5 7 -23 13 -38 7 -15 11 -31 10 -35 -1 -4
6 -25 16 -47 10 -22 20 -53 23 -70 l5 -30 -121 0 c-128 0 -128 0 -135 49 -1 6
-7 25 -13 41 -27 72 -28 76 -36 108 -2 6 -9 29 -16 50 l-13 37 -61 0 -62 0 -3
-47 c-2 -26 -7 -52 -11 -58 -5 -5 -9 -17 -9 -25 -2 -24 -10 -63 -21 -98 -10
-34 -11 -37 -11 -49 0 -5 -16 -8 -35 -8 -35 0 -39 5 -50 55 -6 25 -28 97 -33
105 -4 6 -8 21 -10 35 -2 14 -7 29 -13 35 -5 5 -9 15 -9 21 0 7 -5 25 -12 41
-19 47 -18 53 20 72 65 34 139 127 157 196 12 45 9 137 -5 179 -11 33 -102
136 -119 134 -3 0 -10 1 -16 3 -14 5 526 15 550 10 11 -2 34 -9 51 -16z m-712
-178 c27 -20 36 -95 16 -132 -31 -56 -62 -70 -167 -74 l-96 -3 7 23 c7 22 9
34 20 94 2 11 7 28 11 38 4 10 5 21 2 24 -4 3 -2 14 4 24 8 16 22 19 97 19 58
0 94 -5 106 -13z m-167 -409 c10 -12 26 -70 24 -83 -1 -3 6 -19 14 -35 8 -16
15 -31 15 -32 -1 -2 1 -10 4 -18 3 -8 9 -31 14 -50 6 -19 13 -42 16 -50 5 -13
-12 -15 -129 -12 l-134 3 3 27 c2 15 11 59 20 97 16 69 23 101 30 140 4 24 -4
21 59 24 34 1 58 -3 64 -11z m-1499 -733 c1 -60 7 -114 12 -119 18 -18 10 -26
-25 -26 -24 0 -35 5 -35 14 0 13 -4 12 -29 0 -55 -27 -101 9 -101 81 0 63 79
112 118 73 9 -9 12 -5 12 19 0 17 -7 38 -15 47 -23 23 -18 27 23 24 l37 -3 3
-110z m1222 90 c0 -20 -5 -25 -25 -25 -20 0 -25 5 -25 25 0 20 5 25 25 25 20
0 25 -5 25 -25z m590 -89 c0 -66 4 -117 10 -121 23 -14 7 -25 -34 -25 -46 0
-68 13 -41 24 22 8 22 204 0 212 -28 11 -15 24 25 24 l40 0 0 -114z m240 -1
c0 -93 3 -117 15 -121 23 -9 7 -24 -26 -24 -17 0 -32 6 -35 15 -5 12 -9 12
-29 -1 -45 -30 -95 10 -95 76 0 62 32 96 85 87 34 -6 35 -5 35 29 0 19 -4 34
-10 34 -5 0 -10 5 -10 10 0 6 16 10 35 10 l35 0 0 -115z m140 90 c0 -20 -5
-25 -25 -25 -20 0 -25 5 -25 25 0 20 5 25 25 25 20 0 25 -5 25 -25z m660 -90
c0 -93 3 -117 15 -121 8 -4 12 -10 9 -15 -7 -12 -58 -11 -70 1 -8 8 -19 7 -38
-1 -66 -31 -116 80 -65 145 19 24 27 28 61 23 38 -5 38 -5 38 29 0 19 -4 34
-10 34 -5 0 -10 5 -10 10 0 6 16 10 35 10 l35 0 0 -115z m1150 0 c0 -93 3
-117 15 -121 25 -10 6 -24 -31 -24 -23 0 -34 5 -34 14 0 13 -4 12 -29 0 -63
-31 -115 29 -92 106 6 22 20 44 31 50 25 14 63 13 78 -2 9 -9 12 -4 12 25 0
24 -5 40 -15 43 -28 11 -15 24 25 24 l40 0 0 -115z m-1431 -15 c24 -52 49
-100 57 -106 24 -19 16 -24 -36 -24 -45 0 -67 13 -39 22 7 2 7 12 0 31 -9 24
-15 27 -59 27 -43 0 -50 -3 -61 -27 -9 -19 -9 -29 -2 -31 23 -8 10 -22 -19
-22 -33 0 -38 11 -15 30 8 7 15 16 15 20 0 4 20 52 45 105 54 115 51 116 114
-25z m-3075 94 c22 -22 20 -64 -5 -91 l-22 -22 37 -46 c21 -25 42 -45 47 -45
6 0 7 -4 4 -10 -3 -5 -21 -10 -39 -10 -30 0 -37 6 -67 55 -18 30 -37 55 -41
55 -4 0 -8 -20 -8 -45 0 -25 5 -45 10 -45 6 0 10 -4 10 -10 0 -12 -87 -13 -94
-1 -3 5 1 11 9 15 22 8 22 196 0 196 -8 0 -15 5 -15 10 0 6 33 10 79 10 59 0
84 -4 95 -16z m1557 6 c26 -14 26 -74 0 -97 -19 -16 -19 -17 11 -60 16 -25 36
-47 44 -50 22 -8 6 -23 -26 -23 -25 0 -36 9 -66 55 -20 30 -41 55 -45 55 -12
0 -11 -77 1 -85 24 -15 7 -26 -36 -24 -47 3 -65 13 -39 23 24 9 21 184 -2 202
-16 11 -7 13 60 14 43 0 87 -5 98 -10z m-1307 -71 c20 -16 26 -29 26 -60 0
-54 -14 -76 -54 -87 -70 -20 -126 18 -126 85 0 73 92 111 154 62z m389 9 c4
-10 7 -10 18 0 17 15 61 16 77 0 7 -7 12 -39 12 -75 0 -47 4 -65 15 -69 27
-11 5 -24 -41 -24 -41 0 -57 11 -34 25 6 3 10 33 10 66 0 50 -3 59 -18 59 -30
0 -42 -21 -42 -72 0 -34 5 -50 15 -54 27 -11 5 -24 -40 -24 -45 0 -67 13 -40
24 23 8 21 124 -2 142 -16 12 -13 13 24 14 24 0 43 -5 46 -12z m307 -8 c11
-11 20 -31 20 -45 0 -24 -3 -25 -55 -25 -60 0 -63 -4 -39 -39 13 -19 24 -22
55 -19 51 5 52 -17 2 -25 -99 -16 -161 85 -93 153 27 27 84 26 110 0z m170 11
c0 -5 -6 -11 -12 -14 -10 -3 -8 -15 8 -47 l20 -43 22 38 c13 21 20 45 17 56
-5 16 -1 19 24 19 31 0 42 -14 18 -23 -7 -3 -38 -53 -67 -111 -47 -91 -59
-106 -79 -106 l-25 0 31 33 32 32 -35 75 c-19 41 -39 77 -44 78 -27 10 -4 22
40 22 28 0 50 -4 50 -9z m610 -66 c0 -58 4 -77 15 -81 27 -11 5 -24 -41 -24
-41 0 -57 11 -34 25 6 3 10 35 10 71 0 36 -4 64 -10 64 -5 0 -10 5 -10 10 0 6
16 10 35 10 l35 0 0 -75z m140 65 c0 -7 6 -7 19 0 31 16 69 12 81 -9 5 -11 10
-45 10 -76 0 -40 4 -57 15 -61 27 -11 5 -24 -40 -24 -45 0 -67 13 -40 24 11 4
15 21 15 66 0 51 -3 60 -18 60 -10 0 -23 -5 -30 -12 -14 -14 -16 -104 -2 -113
23 -14 7 -25 -34 -25 -46 0 -68 13 -41 24 23 8 21 124 -2 142 -16 12 -13 13
25 14 23 0 42 -5 42 -10z m300 -10 c16 -16 20 -33 20 -80 0 -41 4 -60 13 -60
8 0 8 -3 -2 -9 -8 -6 -24 -6 -38 0 -14 5 -33 5 -49 -2 -20 -7 -32 -6 -50 6
-49 32 -16 95 48 95 21 0 28 5 28 20 0 26 -27 37 -51 22 -25 -16 -39 -15 -39
2 0 30 91 35 120 6z m530 -60 c0 -47 4 -80 10 -80 6 0 10 -4 10 -10 0 -12 -87
-13 -94 -1 -3 5 1 11 9 15 21 8 21 124 0 132 -28 11 -15 24 25 24 l40 0 0 -80z
m820 71 c0 -5 -5 -11 -11 -13 -8 -3 -4 -19 11 -48 l23 -44 22 44 c13 25 19 47
14 48 -23 9 -5 22 28 22 l37 0 -22 -21 c-12 -11 -38 -51 -57 -90 -20 -38 -37
-69 -40 -69 -3 0 -23 36 -45 80 -22 44 -45 80 -50 80 -6 0 -10 5 -10 10 0 6
23 10 50 10 28 0 50 -4 50 -9z m305 -16 c17 -17 25 -35 25 -60 0 -49 -13 -71
-51 -84 -66 -23 -129 17 -129 81 0 54 35 88 90 88 30 0 47 -6 65 -25z m255 15
c0 -6 -7 -13 -15 -16 -9 -4 -15 -19 -15 -39 0 -39 -18 -56 -62 -60 -50 -4 -35
-20 22 -23 66 -4 83 -30 46 -67 -20 -20 -35 -25 -74 -25 -62 0 -92 20 -74 49
6 12 12 29 12 40 0 11 6 21 12 23 9 3 8 9 -5 22 -24 25 -22 71 5 90 26 18 148
23 148 6z m174 -6 c11 -10 16 -34 16 -73 0 -31 5 -62 11 -68 17 -17 -7 -26
-32 -13 -14 8 -29 8 -48 2 -38 -14 -75 5 -79 40 -4 31 28 58 70 58 23 0 28 4
28 25 0 20 -5 25 -24 25 -14 0 -28 -4 -31 -10 -9 -15 -25 -12 -25 4 0 18 15
24 62 25 21 1 43 -6 52 -15z m459 5 c49 -22 61 -92 25 -133 -65 -71 -185 -11
-162 81 13 52 82 77 137 52z m-4142 -540 c-29 -48 -30 -178 -1 -234 11 -21 18
-40 17 -42 -9 -8 -50 34 -68 70 -41 79 -20 187 44 232 29 20 31 13 8 -26z
m620 -11 c34 -47 38 -141 10 -196 -18 -35 -59 -77 -68 -69 -1 2 6 21 17 42 28
56 28 186 0 233 -11 18 -20 35 -20 38 0 13 41 -19 61 -48z m2718 22 c23 -12
60 -81 61 -112 0 -38 -33 -98 -65 -118 -34 -21 -118 -27 -144 -11 -8 5 -24 6
-37 1 -20 -8 -23 -6 -23 23 0 18 -3 60 -7 94 -6 59 -5 63 28 98 49 54 118 63
187 25z m-3149 -84 c0 -118 4 -136 31 -136 10 0 19 -4 19 -10 0 -6 -30 -10
-70 -10 -40 0 -70 4 -70 10 0 6 9 10 20 10 19 0 20 7 20 105 0 98 -1 105 -20
105 -33 0 -23 18 13 23 17 2 38 5 45 5 9 2 12 -25 12 -102z m252 -13 c3 -114
4 -118 26 -121 12 -2 22 -8 22 -13 0 -5 -34 -9 -75 -9 -41 0 -75 4 -75 9 0 5
10 11 23 13 21 3 22 8 25 106 l3 102 -28 0 c-17 0 -23 4 -17 9 8 8 28 13 81
20 9 1 13 -31 15 -116z m552 96 c33 -26 33 -40 0 -78 -21 -25 -23 -31 -9 -31
19 0 44 -55 37 -82 -8 -32 -43 -48 -104 -48 -55 0 -58 1 -58 25 0 14 5 25 10
25 6 0 10 -4 10 -10 0 -5 9 -14 21 -20 27 -15 69 11 69 43 0 33 -20 54 -60 65
l-35 9 30 8 c41 10 55 23 55 49 0 44 -62 66 -73 26 -7 -28 -27 -25 -27 4 0 29
11 34 66 35 28 1 50 -6 68 -20z m216 -83 c0 -118 4 -136 31 -136 10 0 19 -4
19 -10 0 -6 -30 -10 -70 -10 -40 0 -70 4 -70 10 0 6 9 10 20 10 19 0 20 7 20
105 0 98 -1 105 -20 105 -33 0 -23 18 13 23 17 2 38 5 45 5 9 2 12 -25 12
-102z m298 95 c16 -10 13 -42 -4 -48 -6 -2 -14 5 -17 17 -5 20 -40 27 -63 12
-15 -9 -34 -47 -34 -65 0 -12 6 -13 34 -5 64 20 118 -31 102 -96 -11 -44 -41
-66 -90 -66 -37 0 -48 5 -71 32 -25 29 -27 38 -23 101 3 63 7 72 36 98 25 22
42 29 75 29 23 0 48 -4 55 -9z m232 -66 c0 -60 3 -75 15 -75 8 0 15 -9 15 -20
0 -11 -7 -20 -15 -20 -8 0 -15 -9 -15 -20 0 -11 7 -23 15 -26 31 -12 13 -24
-35 -24 -48 0 -66 12 -35 24 8 3 15 15 15 26 0 18 -6 20 -60 20 -51 0 -60 3
-60 18 0 26 120 172 142 172 16 0 18 -9 18 -75z m374 69 c17 -7 23 -54 6 -54
-5 0 -14 9 -20 20 -23 43 -82 15 -92 -43 -5 -23 -3 -27 11 -21 66 28 121 -2
121 -67 0 -72 -76 -113 -142 -78 -67 36 -59 201 12 236 27 14 78 17 104 7z
m253 -20 c19 -25 16 -42 -9 -67 l-23 -22 28 -27 c34 -33 34 -61 2 -93 -19 -20
-34 -25 -75 -25 -83 0 -119 60 -65 110 l24 23 -19 25 c-26 33 -25 48 6 79 22
22 32 25 72 20 28 -3 51 -12 59 -23z m235 -49 c-3 -63 -1 -75 12 -75 9 0 16
-8 16 -20 0 -11 -7 -20 -15 -20 -8 0 -15 -6 -15 -14 0 -8 7 -21 15 -30 23 -23
19 -26 -35 -26 -27 0 -50 5 -50 10 0 6 7 10 15 10 9 0 15 9 15 25 0 24 -3 25
-60 25 -51 0 -60 3 -60 18 0 28 120 172 144 172 20 0 21 -4 18 -75z m236 59
c28 -20 29 -61 0 -91 -12 -13 -17 -23 -10 -23 20 0 42 -31 42 -61 0 -48 -30
-69 -100 -69 -57 0 -60 1 -60 25 0 14 5 25 10 25 6 0 10 -4 10 -10 0 -5 9 -14
20 -20 38 -21 80 23 65 69 -3 11 -24 26 -48 34 l-42 15 30 7 c41 10 55 23 55
49 0 45 -62 66 -75 26 -3 -11 -11 -20 -16 -20 -14 0 -11 48 4 53 27 11 94 6
115 -9z m-948 -220 c0 -22 -4 -25 -27 -22 -18 2 -27 10 -29 26 -3 19 1 22 26
22 26 0 30 -4 30 -26z m-1640 -453 c0 -62 4 -91 13 -94 6 -3 -3 -6 -20 -6 -20
-1 -33 4 -33 11 0 9 -3 9 -12 0 -37 -37 -96 11 -83 67 8 39 28 54 65 49 25 -4
30 -1 30 17 0 11 -5 26 -12 33 -9 9 -5 12 20 12 l32 0 0 -89z m756 66 c33 -28
37 -76 9 -107 -20 -22 -65 -27 -65 -8 0 9 -3 9 -12 0 -17 -17 -45 -15 -52 4
-9 23 19 81 43 89 12 3 29 4 40 0 16 -5 18 -11 10 -43 -11 -47 -11 -52 0 -52
18 0 41 32 41 57 0 65 -84 87 -132 36 -41 -43 -45 -77 -13 -109 21 -21 32 -25
56 -20 19 3 28 2 24 -4 -12 -19 -65 -11 -90 15 -33 32 -32 75 2 115 45 54 96
64 139 27z m536 -72 c3 -93 2 -95 -19 -95 -13 0 -23 5 -23 12 0 9 -3 9 -12 0
-19 -19 -55 -14 -72 10 -20 29 -20 58 0 87 13 18 24 22 50 19 29 -3 34 -1 34
17 0 12 -5 26 -12 33 -9 9 -5 12 19 12 l32 0 3 -95z m778 74 c0 -25 -33 -22
-38 4 -2 12 3 17 17 17 15 0 21 -6 21 -21z m460 -62 c0 -51 5 -88 12 -95 9 -9
2 -12 -32 -11 -25 0 -39 3 -32 6 8 3 12 31 12 88 0 57 -4 85 -12 88 -7 3 2 6
20 6 l32 1 0 -83z m190 0 c0 -49 5 -88 11 -94 9 -9 -3 -12 -50 -12 -71 1 -91
14 -91 63 0 41 30 70 65 64 22 -5 25 -2 25 23 0 15 -6 30 -12 32 -7 3 2 6 20
6 l32 1 0 -83z m110 63 c0 -13 -7 -20 -20 -20 -13 0 -20 7 -20 20 0 13 7 20
20 20 13 0 20 -7 20 -20z m-3240 -52 c0 -9 3 -9 12 0 18 18 38 14 38 -8 0 -22
-16 -27 -22 -8 -8 24 -28 -5 -28 -42 0 -27 6 -42 18 -49 13 -8 6 -10 -33 -10
-39 0 -46 2 -32 10 12 7 17 23 17 54 0 31 -5 47 -17 54 -15 9 -12 10 15 11 18
0 32 -5 32 -12z m212 -5 c26 -23 24 -78 -4 -97 -49 -34 -118 -5 -118 49 0 55
80 87 122 48z m298 5 c0 -9 3 -9 12 0 18 18 56 14 68 -7 5 -11 10 -38 10 -60
0 -22 5 -42 13 -44 6 -3 -8 -6 -32 -6 -35 -1 -42 2 -33 11 15 15 16 84 2 93
-31 19 -56 -65 -28 -93 9 -9 2 -12 -32 -12 -36 1 -41 3 -27 11 12 7 17 23 17
54 0 31 -5 47 -17 54 -15 9 -12 10 15 11 18 0 32 -5 32 -12z m244 -10 c23 -33
20 -38 -25 -38 -36 0 -40 -2 -37 -22 2 -19 9 -23 41 -23 39 0 48 -9 21 -19
-27 -10 -59 -7 -82 10 -26 18 -30 74 -6 98 23 24 70 20 88 -6z m119 16 c-9 -4
-8 -14 4 -40 l17 -34 18 28 c10 15 16 33 13 40 -3 8 5 12 23 12 19 0 23 -3 13
-9 -7 -5 -30 -39 -50 -77 -20 -37 -43 -70 -50 -72 -10 -3 -10 0 -1 15 10 16 8
28 -15 74 -15 29 -33 57 -39 61 -6 4 9 7 34 7 25 0 40 -3 33 -5z m417 -6 c0
-9 3 -9 12 0 18 18 38 14 38 -8 0 -22 -16 -27 -22 -8 -2 6 -10 8 -16 4 -16 -9
-16 -78 0 -94 9 -9 2 -12 -32 -11 -25 0 -39 3 -32 6 7 3 12 25 12 58 0 33 -5
55 -12 58 -7 3 2 6 20 6 19 1 32 -4 32 -11z m214 -10 c34 -48 4 -108 -54 -108
-58 0 -88 60 -54 108 11 16 25 22 54 22 29 0 43 -6 54 -22z m296 11 c0 -8 4
-8 14 1 8 6 25 10 38 8 20 -3 23 -9 26 -53 2 -32 9 -55 19 -62 14 -11 10 -13
-27 -13 -34 0 -41 3 -32 12 15 15 16 84 2 93 -31 19 -56 -65 -28 -93 9 -9 2
-12 -32 -11 -25 0 -39 3 -32 6 7 3 12 25 12 58 0 33 -5 55 -12 58 -7 3 2 6 20
6 17 1 32 -4 32 -10z m247 -19 c12 -24 11 -25 -20 -28 -53 -5 -59 -9 -47 -32
8 -14 21 -20 48 -20 28 0 33 -3 22 -10 -8 -5 -29 -10 -47 -10 -62 0 -93 81
-45 118 27 20 75 11 89 -18z m117 22 c-8 -5 -7 -17 4 -42 l14 -35 18 35 c13
25 15 37 7 42 -7 4 4 7 23 7 19 0 30 -3 23 -6 -7 -2 -31 -38 -53 -79 -23 -41
-46 -74 -52 -74 -7 0 -6 5 2 15 9 11 7 26 -15 72 -14 31 -31 61 -38 65 -7 4 8
8 33 8 25 0 40 -4 34 -8z m226 -13 c0 -21 -16 -26 -22 -7 -2 6 -10 8 -16 4
-16 -10 -16 -93 1 -99 6 -3 -8 -5 -33 -5 -25 0 -39 2 -32 5 7 3 12 25 12 58 0
33 -5 55 -12 58 -7 3 13 5 45 5 49 0 57 -3 57 -19z m90 -32 c0 -29 5 -58 12
-65 9 -9 2 -12 -32 -11 -25 0 -39 3 -32 6 7 3 12 25 12 58 0 33 -5 55 -12 58
-7 3 2 6 20 6 l32 1 0 -53z m110 42 c0 -8 4 -8 14 1 8 6 25 10 38 8 20 -3 23
-10 26 -53 2 -27 8 -55 14 -62 8 -10 -6 -13 -73 -12 -46 0 -78 3 -71 6 7 3 12
25 12 58 0 33 -5 55 -12 58 -7 3 2 6 20 6 17 1 32 -4 32 -10z m237 -1 c4 -7
10 -36 13 -65 l6 -51 -54 1 c-41 2 -58 7 -66 20 -9 15 -7 22 13 38 13 10 32
19 42 19 10 0 19 7 19 15 0 19 -32 33 -38 17 -4 -14 -32 -17 -32 -4 0 16 14
22 51 22 21 0 41 -6 46 -12z m413 -47 c0 -38 4 -61 13 -64 6 -3 -8 -5 -33 -5
-25 0 -39 2 -32 5 7 3 12 25 12 58 0 33 -5 55 -12 58 -7 3 2 6 20 6 l32 1 0
-59z m260 39 c0 -11 -4 -20 -10 -20 -5 0 -10 7 -10 16 0 26 -44 13 -48 -15 -7
-47 6 -71 38 -71 17 0 30 -4 30 -10 0 -16 -63 -12 -88 6 -15 10 -22 25 -22 46
0 44 25 68 72 68 31 0 38 -3 38 -20z m160 10 c35 -19 33 -88 -4 -112 -20 -13
-69 -8 -88 9 -22 20 -23 70 -1 95 18 20 63 24 93 8z m120 -2 c0 -9 3 -9 12 0
15 15 55 16 63 2 5 -8 11 -7 20 0 8 6 24 10 37 8 20 -3 23 -10 26 -53 2 -27 8
-55 14 -62 8 -10 3 -13 -23 -13 l-34 0 3 55 c2 30 0 55 -5 55 -18 0 -33 -25
-33 -55 0 -17 5 -36 12 -43 9 -9 4 -12 -22 -12 l-35 0 3 55 c4 57 3 59 -22 49
-20 -8 -23 -90 -3 -97 6 -3 -8 -5 -33 -5 -25 0 -39 2 -32 5 7 3 12 25 12 58 0
33 -5 55 -12 58 -7 3 2 6 20 6 19 1 32 -4 32 -11z m-440 -98 c0 -13 -7 -20
-20 -20 -13 0 -20 7 -20 20 0 13 7 20 20 20 13 0 20 -7 20 -20z m-2715 -182
c2 -7 5 -52 7 -101 3 -84 2 -87 -19 -87 -13 0 -23 4 -23 10 0 6 -9 6 -26 0
-34 -13 -61 2 -69 41 -10 44 21 85 64 83 26 -2 31 2 31 22 0 13 -4 24 -10 24
-5 0 -10 5 -10 10 0 15 50 12 55 -2z m795 -78 c0 -53 4 -90 10 -90 6 0 10 -4
10 -10 0 -13 -47 -13 -55 0 -4 7 -13 6 -26 -1 -16 -8 -26 -7 -45 6 -52 34 -16
135 43 120 25 -6 26 -5 20 29 -5 33 -4 36 19 36 24 0 24 -1 24 -90z m790 70
c0 -13 -7 -20 -20 -20 -13 0 -20 7 -20 20 0 13 7 20 20 20 13 0 20 -7 20 -20z
m460 -70 c0 -57 4 -90 11 -90 5 0 7 -4 4 -10 -3 -5 -22 -10 -41 -10 -19 0 -34
5 -34 10 0 6 5 10 10 10 6 0 10 33 10 80 0 47 -4 80 -10 80 -5 0 -10 5 -10 10
0 6 14 10 30 10 l30 0 0 -90z m190 6 c0 -46 3 -91 6 -100 5 -12 0 -16 -20 -16
-14 0 -26 5 -26 10 0 7 -7 7 -20 0 -30 -16 -57 -4 -69 31 -18 53 22 109 69 94
16 -5 20 -2 20 19 0 14 -4 26 -10 26 -5 0 -10 5 -10 10 0 6 14 10 30 10 l30 0
0 -84z m100 64 c0 -11 -7 -20 -15 -20 -8 0 -15 9 -15 20 0 11 7 20 15 20 8 0
15 -9 15 -20z m-2541 -49 c13 -8 34 -119 25 -129 -1 -2 -11 1 -21 6 -12 7 -25
7 -36 1 -24 -14 -57 6 -57 35 0 24 17 36 51 36 12 0 19 7 19 20 0 13 -7 20
-20 20 -11 0 -20 -4 -20 -10 0 -5 -4 -10 -10 -10 -14 0 -12 27 3 33 20 9 51 7
66 -2z m323 -3 c-7 -9 -5 -23 7 -47 l18 -33 14 33 c7 19 12 40 11 47 -2 6 6
12 18 12 24 0 26 -13 5 -30 -8 -7 -15 -16 -15 -20 0 -4 -11 -27 -24 -50 l-24
-43 -31 62 c-17 33 -36 61 -41 61 -6 0 -10 5 -10 10 0 6 19 10 41 10 32 0 39
-3 31 -12z m273 2 c5 -8 11 -7 20 0 17 14 35 5 35 -16 0 -10 -7 -13 -25 -8
-24 6 -25 4 -25 -40 0 -25 5 -46 10 -46 6 0 10 -4 10 -10 0 -5 -18 -10 -40
-10 -22 0 -40 5 -40 10 0 6 5 10 10 10 6 0 10 23 10 50 0 28 -4 50 -10 50 -5
0 -10 5 -10 10 0 13 47 13 55 0z m206 -8 c27 -23 30 -75 6 -99 -20 -20 -79
-22 -101 -4 -10 8 -16 29 -16 52 0 62 62 90 111 51z m304 8 c4 -6 15 -5 30 2
37 17 55 -4 55 -63 0 -27 5 -49 10 -49 6 0 10 -4 10 -10 0 -5 -15 -10 -33 -10
l-34 0 5 56 c4 51 3 56 -14 52 -16 -3 -19 -12 -19 -56 l1 -52 -33 0 c-18 0
-33 5 -33 10 0 6 5 10 10 10 6 0 10 23 10 50 0 28 -4 50 -10 50 -5 0 -10 5
-10 10 0 13 47 13 55 0z m233 -6 c12 -8 22 -24 22 -35 0 -16 -7 -19 -40 -19
-28 0 -40 -4 -40 -15 0 -19 36 -38 60 -30 11 4 20 2 20 -3 0 -16 -46 -23 -74
-12 -51 19 -60 95 -14 118 32 15 40 14 66 -4z m128 1 c-6 -16 12 -65 24 -65
12 0 30 49 24 65 -5 11 1 15 20 15 14 0 26 -4 26 -10 0 -5 -4 -10 -10 -10 -5
0 -28 -35 -49 -79 -22 -43 -47 -81 -55 -84 -22 -9 -20 6 3 27 19 17 19 19 -7
74 -14 31 -29 59 -34 60 -21 9 -4 22 28 22 28 0 35 -3 30 -15z m177 3 c4 -10
7 -10 18 0 19 17 29 15 29 -8 0 -15 -6 -19 -22 -17 -20 2 -23 -3 -26 -40 -2
-26 1 -43 7 -43 6 0 11 -4 11 -10 0 -5 -16 -10 -35 -10 -19 0 -35 5 -35 10 0
6 5 10 10 10 6 0 10 23 10 50 0 28 -4 50 -10 50 -5 0 -10 5 -10 10 0 15 47 12
53 -2z m142 0 c2 -7 5 -39 8 -70 l4 -58 -34 0 c-18 0 -33 5 -33 10 0 6 5 10
10 10 6 0 10 23 10 50 0 28 -4 50 -10 50 -5 0 -10 5 -10 10 0 15 50 12 55 -2z
m110 2 c4 -6 13 -5 25 3 34 20 55 -2 58 -62 2 -28 7 -51 13 -51 5 0 9 -4 9
-10 0 -5 -15 -10 -33 -10 l-34 0 5 56 c4 51 3 56 -14 52 -16 -3 -19 -12 -19
-56 l1 -52 -33 0 c-18 0 -33 5 -33 10 0 6 5 10 10 10 6 0 10 23 10 50 0 28 -4
50 -10 50 -5 0 -10 5 -10 10 0 13 47 13 55 0z m226 0 c15 -8 19 -22 19 -60 0
-32 4 -50 12 -50 9 0 9 -3 1 -11 -7 -7 -17 -8 -30 -1 -12 7 -25 7 -36 1 -22
-13 -57 5 -57 29 0 25 20 42 47 42 16 0 23 6 23 20 0 13 -7 20 -20 20 -11 0
-20 -4 -20 -10 0 -5 -4 -10 -10 -10 -14 0 -12 27 3 33 21 9 47 7 68 -3z m419
-50 c0 -33 4 -60 10 -60 6 0 10 -4 10 -10 0 -5 -16 -10 -35 -10 -19 0 -35 5
-35 10 0 6 5 10 10 10 6 0 10 23 10 50 0 28 -4 50 -10 50 -5 0 -10 5 -10 10 0
6 11 10 25 10 24 0 25 -3 25 -60z m254 54 c17 -7 22 -34 6 -34 -5 0 -10 5 -10
10 0 16 -47 11 -54 -6 -18 -46 10 -90 50 -80 14 4 24 2 24 -4 0 -24 -80 -15
-102 12 -25 28 -22 55 7 83 24 25 49 31 79 19z m184 -21 c13 -18 16 -62 4 -79
-25 -38 -91 -39 -117 -1 -22 31 -18 54 11 84 20 20 31 24 57 19 18 -3 38 -14
45 -23z m107 17 c4 -7 12 -7 25 0 19 10 50 4 50 -11 0 -4 13 0 30 9 26 15 31
15 44 2 7 -8 16 -41 18 -72 5 -57 4 -58 -22 -58 -26 0 -27 1 -22 56 4 51 3 56
-14 52 -16 -3 -19 -12 -19 -56 1 -50 0 -52 -25 -52 -26 0 -27 1 -22 56 4 51 3
56 -14 52 -16 -3 -19 -12 -19 -56 l1 -52 -33 0 c-18 0 -33 5 -33 10 0 6 5 10
10 10 6 0 10 23 10 50 0 28 -4 50 -10 50 -5 0 -10 5 -10 10 0 13 47 13 55 0z
m-2587 -107 c-5 -26 -38 -29 -38 -4 0 15 6 21 21 21 14 0 19 -5 17 -17z m2150
0 c-5 -26 -38 -29 -38 -4 0 15 6 21 21 21 14 0 19 -5 17 -17z"/>
<path d="M3760 3474 c-7 -19 -10 -38 -7 -41 3 -3 2 -16 -3 -29 -5 -13 -12 -44
-16 -69 l-6 -45 76 0 c44 0 91 6 111 14 51 22 97 104 79 143 -4 10 -8 22 -8
26 -3 25 -44 37 -127 37 l-87 0 -12 -36z"/>
<path d="M1606 2348 c-20 -29 -20 -72 0 -92 18 -19 20 -19 45 -6 14 8 19 21
19 55 0 34 -5 47 -19 55 -26 14 -28 13 -45 -12z"/>
<path d="M3666 2354 c-20 -19 -21 -87 -2 -103 11 -9 20 -10 35 -1 17 8 21 20
21 59 0 35 -4 51 -16 55 -21 8 -20 8 -38 -10z"/>
<path d="M4466 2354 c-37 -37 -7 -126 35 -104 25 14 28 104 3 114 -21 8 -20 8
-38 -10z"/>
<path d="M5612 2358 c-17 -17 -15 -93 2 -107 11 -9 20 -10 35 -1 37 19 25 120
-14 120 -6 0 -16 -5 -23 -12z"/>
<path d="M4187 2343 l-15 -38 35 -3 c19 -2 37 -1 39 1 6 6 -28 77 -37 77 -4 0
-14 -17 -22 -37z"/>
<path d="M1120 2386 c0 -39 3 -46 20 -46 27 0 48 45 33 68 -5 9 -20 18 -32 20
-19 3 -21 -1 -21 -42z"/>
<path d="M2680 2386 c0 -38 3 -46 19 -46 26 0 43 24 39 57 -2 22 -9 29 -30 31
-27 3 -28 2 -28 -42z"/>
<path d="M1370 2344 c-14 -36 -12 -66 6 -92 18 -26 27 -27 48 -6 18 18 21 76
6 105 -15 28 -49 24 -60 -7z"/>
<path d="M2081 2351 c-16 -29 -14 -31 20 -31 26 0 30 3 27 22 -4 29 -34 35
-47 9z"/>
<path d="M3301 2282 c-12 -23 1 -45 25 -40 12 2 20 13 22 31 3 22 -1 27 -17
27 -11 0 -25 -8 -30 -18z"/>
<path d="M4940 2344 c-14 -36 -12 -66 6 -92 18 -26 27 -27 48 -6 18 18 21 76
6 105 -15 28 -49 24 -60 -7z"/>
<path d="M5170 2331 c0 -44 13 -59 36 -40 24 19 14 73 -13 77 -21 3 -23 -1
-23 -37z"/>
<path d="M5156 2203 c-3 -6 1 -17 9 -23 20 -16 69 -8 73 11 2 13 -6 18 -37 21
-26 2 -42 -1 -45 -9z"/>
<path d="M5384 2285 c-9 -23 3 -45 26 -45 16 0 20 7 20 30 0 23 -4 30 -20 30
-11 0 -23 -7 -26 -15z"/>
<path d="M5846 2354 c-11 -28 -6 -90 8 -110 33 -43 70 31 52 103 -7 27 -50 33
-60 7z"/>
<path d="M4967 1803 c-18 -17 -5 -62 28 -96 50 -52 109 -61 122 -20 6 16 -35
27 -51 14 -19 -16 -67 24 -65 52 4 40 -1 57 -14 57 -8 0 -17 -3 -20 -7z"/>
<path d="M3186 1745 c-40 -41 7 -150 50 -114 20 17 27 65 12 96 -16 33 -40 40
-62 18z"/>
<path d="M3433 1779 l-42 -54 40 -3 c23 -2 43 -1 46 1 2 3 3 28 1 57 l-3 53
-42 -54z"/>
<path d="M3802 1748 c-14 -14 -16 -72 -2 -97 25 -48 70 -23 70 39 0 56 -38 88
-68 58z"/>
<path d="M4047 1844 c-23 -23 17 -82 48 -70 11 4 15 16 13 38 -2 27 -8 34 -28
36 -14 2 -29 0 -33 -4z"/>
<path d="M4036 1714 c-12 -31 -6 -63 16 -78 28 -20 33 -20 52 0 25 25 19 52
-16 74 -40 24 -44 24 -52 4z"/>
<path d="M4293 1779 l-42 -54 40 -3 c23 -2 43 -1 46 1 2 3 3 28 1 57 l-3 53
-42 -54z"/>
<path d="M1935 1167 c-7 -25 9 -67 24 -67 17 0 32 30 29 57 -4 38 -44 46 -53
10z"/>
<path d="M2706 1205 c-19 -19 -22 -69 -3 -63 21 8 43 56 31 68 -8 8 -16 7 -28
-5z"/>
<path d="M3226 1175 c-17 -46 10 -89 40 -65 23 20 15 74 -12 78 -13 2 -24 -4
-28 -13z"/>
<path d="M4667 1183 c-11 -10 -8 -58 4 -70 21 -21 39 -3 39 38 0 31 -4 39 -18
39 -10 0 -22 -3 -25 -7z"/>
<path d="M1760 1181 c-14 -27 -13 -54 4 -76 12 -16 16 -17 30 -6 28 23 16 101
-16 101 -4 0 -12 -9 -18 -19z"/>
<path d="M2317 1194 c-14 -15 -6 -34 14 -34 14 0 19 5 17 17 -3 18 -20 27 -31
17z"/>
<path d="M3052 1188 c-17 -17 -15 -60 3 -84 15 -19 15 -19 30 0 24 32 14 96
-15 96 -3 0 -11 -5 -18 -12z"/>
<path d="M3600 1181 c-10 -19 -8 -21 15 -21 19 0 26 5 23 17 -5 25 -25 27 -38
4z"/>
<path d="M4223 1183 c-8 -3 -13 -23 -13 -50 0 -40 2 -44 23 -41 19 3 22 9 22
47 0 44 -8 54 -32 44z"/>
<path d="M4380 1120 c0 -13 7 -20 20 -20 13 0 20 7 20 20 0 13 -7 20 -20 20
-13 0 -20 -7 -20 -20z"/>
<path d="M5217 1194 c-10 -10 -8 -76 2 -93 5 -8 16 -11 26 -8 22 9 18 100 -5
105 -9 1 -19 0 -23 -4z"/>
<path d="M2160 830 c-18 -33 -4 -72 23 -68 18 3 22 9 22 43 0 46 -26 60 -45
25z"/>
<path d="M2954 837 c-3 -9 -4 -28 -2 -44 2 -20 8 -28 23 -28 17 0 20 7 20 40
0 30 -4 41 -18 43 -9 2 -20 -3 -23 -11z"/>
<path d="M4397 844 c-4 -4 -7 -25 -7 -46 0 -35 2 -39 23 -36 19 3 22 9 22 43
0 28 -5 41 -15 43 -9 1 -19 0 -23 -4z"/>
<path d="M1991 791 c-17 -11 -7 -45 12 -39 13 5 23 48 10 48 -4 0 -14 -4 -22
-9z"/>
<path d="M2774 837 c-3 -8 -4 -30 -2 -49 2 -25 8 -33 23 -33 17 0 20 7 20 45
0 35 -4 45 -18 48 -9 2 -20 -3 -23 -11z"/>
<path d="M3327 843 c-14 -13 -6 -33 13 -33 13 0 20 7 20 20 0 19 -20 27 -33
13z"/>
<path d="M4117 793 c-13 -12 -7 -43 8 -43 9 0 15 9 15 25 0 24 -10 32 -23 18z"/>
<path d="M4936 826 c-10 -42 3 -78 28 -74 18 3 21 10 21 48 0 38 -3 45 -21 48
-16 2 -23 -4 -28 -22z"/>
</g>
</svg>
