<?xml version="1.0" standalone="no"?>
<!DOCTYPE svg PUBLIC "-//W3C//DTD SVG 20010904//EN"
 "http://www.w3.org/TR/2001/REC-SVG-20010904/DTD/svg10.dtd">
<svg version="1.0" xmlns="http://www.w3.org/2000/svg"
 width="512.000000pt" height="512.000000pt" viewBox="0 0 512.000000 512.000000"
 preserveAspectRatio="xMidYMid meet">

<g transform="translate(0.000000,512.000000) scale(0.100000,-0.100000)"
fill="#000000" stroke="none">
<path d="M2315 5109 c-786 -75 -1501 -519 -1927 -1196 -604 -961 -490 -2237
274 -3068 425 -462 951 -737 1583 -827 119 -17 512 -16 635 1 622 86 1148 360
1572 820 349 378 572 861 650 1406 20 139 17 503 -6 660 -21 155 -80 393 -131
531 -45 123 -167 374 -231 474 -196 309 -470 589 -769 788 -133 89 -391 218
-540 271 -357 126 -742 175 -1110 140z m438 -1364 c592 -89 972 -634 886
-1272 -21 -157 -89 -374 -150 -477 l-21 -36 -329 0 -328 0 -11 43 c-6 23 -12
45 -13 49 -1 3 -27 -8 -57 -26 -102 -60 -143 -71 -270 -71 -98 0 -124 4 -175
24 -86 34 -190 140 -237 241 -58 122 -72 193 -72 370 -1 180 11 238 76 370
133 272 442 389 661 250 26 -16 50 -30 52 -30 3 0 5 16 5 35 l0 35 150 0 150
0 0 -530 0 -530 109 0 110 0 20 54 c67 180 87 392 56 598 -30 199 -98 341
-225 469 -97 97 -195 153 -335 191 -119 31 -330 32 -438 0 -418 -121 -664
-508 -626 -982 11 -137 39 -244 93 -355 56 -117 119 -201 202 -269 180 -149
407 -207 689 -177 105 12 298 45 331 58 13 5 14 -11 12 -118 l-3 -124 -85 -17
c-208 -42 -509 -48 -665 -14 -432 94 -733 401 -831 848 -25 115 -30 345 -10
467 53 314 225 586 478 754 235 157 511 216 801 172z"/>
<path d="M2480 3007 c-19 -6 -53 -30 -76 -53 -76 -75 -111 -215 -101 -404 11
-216 59 -311 170 -341 83 -22 168 -1 250 63 l37 30 0 333 0 333 -51 22 c-61
26 -177 35 -229 17z"/>
</g>
</svg>
