<?xml version="1.0" standalone="no"?>
<!DOCTYPE svg PUBLIC "-//W3C//DTD SVG 20010904//EN"
 "http://www.w3.org/TR/2001/REC-SVG-20010904/DTD/svg10.dtd">
<svg version="1.0" xmlns="http://www.w3.org/2000/svg"
 width="512.000000pt" height="512.000000pt" viewBox="0 0 512.000000 512.000000"
 preserveAspectRatio="xMidYMid meet">

<g transform="translate(0.000000,512.000000) scale(0.100000,-0.100000)"
fill="#000000" stroke="none">
<path d="M2321 5110 c-497 -48 -990 -251 -1376 -565 -114 -92 -294 -274 -384
-387 -229 -287 -417 -675 -495 -1023 -49 -218 -60 -325 -60 -575 0 -250 11
-357 60 -575 79 -355 272 -749 509 -1040 92 -114 274 -294 387 -384 287 -229
675 -417 1023 -495 218 -49 325 -60 575 -60 250 0 357 11 575 60 261 58 603
204 828 353 389 259 688 599 893 1016 125 255 196 484 241 775 24 161 24 539
0 700 -45 291 -116 520 -241 775 -134 272 -283 480 -498 692 -211 209 -404
346 -673 478 -252 124 -486 197 -765 240 -126 19 -468 27 -599 15z m529 -900
c325 -77 526 -259 616 -557 24 -79 27 -105 28 -248 1 -206 -22 -313 -102 -470
-55 -108 -102 -167 -282 -350 -241 -245 -250 -261 -259 -502 -8 -225 15 -208
-287 -208 -297 0 -274 -17 -274 200 0 171 16 286 55 389 66 176 120 251 337
473 158 161 182 190 215 258 32 68 37 88 41 175 4 89 2 103 -21 153 -29 64
-79 106 -160 134 -72 25 -288 25 -368 1 -139 -43 -182 -111 -199 -311 -12
-137 -21 -164 -59 -174 -22 -5 -321 19 -425 34 -21 3 -48 15 -59 26 -18 18
-19 29 -14 141 10 199 48 337 132 471 47 75 146 180 216 227 110 75 269 135
414 158 104 16 347 5 455 -20z m-190 -2662 c55 -17 133 -73 168 -122 47 -65
64 -120 65 -208 1 -66 -3 -84 -31 -141 -127 -258 -489 -260 -612 -4 -36 74
-45 140 -30 214 16 77 40 121 93 174 93 93 220 125 347 87z"/>
</g>
</svg>
