<?xml version="1.0" standalone="no"?>
<!DOCTYPE svg PUBLIC "-//W3C//DTD SVG 20010904//EN"
 "http://www.w3.org/TR/2001/REC-SVG-20010904/DTD/svg10.dtd">
<svg version="1.0" xmlns="http://www.w3.org/2000/svg"
 width="512.000000pt" height="512.000000pt" viewBox="0 0 512.000000 512.000000"
 preserveAspectRatio="xMidYMid meet">

<g transform="translate(0.000000,512.000000) scale(0.100000,-0.100000)"
fill="#000000" stroke="none">
<path d="M2315 5109 c-786 -75 -1501 -519 -1927 -1196 -604 -961 -490 -2237
274 -3068 425 -462 951 -737 1583 -827 119 -17 512 -16 635 1 622 86 1148 360
1572 820 349 378 572 861 650 1406 20 139 17 503 -6 660 -21 155 -80 393 -131
531 -45 123 -167 374 -231 474 -196 309 -470 589 -769 788 -133 89 -391 218
-540 271 -357 126 -742 175 -1110 140z m455 -1323 c527 -80 904 -469 981
-1015 18 -129 6 -381 -24 -511 -33 -140 -70 -248 -119 -348 l-41 -82 -366 2
-366 3 -9 51 -8 51 -92 -48 c-53 -27 -116 -52 -150 -58 -74 -14 -187 -14 -245
0 -177 40 -321 202 -383 429 -20 73 -23 109 -23 260 0 205 10 254 82 400 107
219 318 352 535 337 78 -5 142 -28 216 -77 l32 -22 0 41 0 41 165 0 165 0 0
-580 0 -580 124 0 124 0 20 58 c56 153 76 277 75 462 -3 462 -206 783 -572
901 -633 203 -1233 -260 -1231 -951 1 -287 80 -516 244 -713 90 -107 267 -214
431 -259 169 -46 524 -24 768 48 16 5 17 -6 17 -130 0 -155 13 -137 -123 -161
-393 -67 -715 -39 -976 85 -332 159 -548 443 -636 835 -25 110 -31 397 -11
520 86 522 491 929 1006 1010 114 18 274 18 390 1z"/>
<path d="M2482 2978 c-50 -17 -115 -80 -144 -140 -44 -89 -62 -202 -55 -353 9
-208 49 -316 137 -365 38 -21 58 -25 125 -25 88 0 133 17 200 76 l35 31 0 368
0 369 -57 21 c-67 25 -192 35 -241 18z"/>
</g>
</svg>
