<?xml version="1.0" standalone="no"?>
<!DOCTYPE svg PUBLIC "-//W3C//DTD SVG 20010904//EN"
 "http://www.w3.org/TR/2001/REC-SVG-20010904/DTD/svg10.dtd">
<svg version="1.0" xmlns="http://www.w3.org/2000/svg"
 width="512.000000pt" height="512.000000pt" viewBox="0 0 512.000000 512.000000"
 preserveAspectRatio="xMidYMid meet">

<g transform="translate(0.000000,512.000000) scale(0.100000,-0.100000)"
fill="#000000" stroke="none">
<path d="M2315 5109 c-786 -75 -1501 -519 -1927 -1196 -604 -961 -490 -2237
274 -3068 425 -462 951 -737 1583 -827 119 -17 512 -16 635 1 622 86 1148 360
1572 820 349 378 572 861 650 1406 20 139 17 503 -6 660 -21 155 -80 393 -131
531 -45 123 -167 374 -231 474 -196 309 -470 589 -769 788 -133 89 -391 218
-540 271 -357 126 -742 175 -1110 140z m480 -1424 c203 -31 348 -97 466 -214
124 -123 164 -226 162 -411 -2 -206 -60 -354 -187 -485 -86 -88 -182 -152
-338 -225 l-118 -55 0 -177 0 -178 -275 0 -275 0 0 264 0 264 128 41 c70 22
156 57 191 78 84 49 190 149 223 210 71 130 52 307 -40 383 -65 53 -149 75
-292 74 -152 -1 -246 -25 -416 -109 -61 -30 -123 -55 -137 -55 l-27 0 0 240 0
239 98 31 c290 89 598 121 837 85z m35 -2160 l0 -205 -320 0 -320 0 0 205 0
205 320 0 320 0 0 -205z"/>
</g>
</svg>
