<?xml version="1.0" standalone="no"?>
<!DOCTYPE svg PUBLIC "-//W3C//DTD SVG 20010904//EN"
 "http://www.w3.org/TR/2001/REC-SVG-20010904/DTD/svg10.dtd">
<svg version="1.0" xmlns="http://www.w3.org/2000/svg"
 width="296.000000pt" height="296.000000pt" viewBox="0 0 296.000000 296.000000"
 preserveAspectRatio="xMidYMid meet">

<g transform="translate(0.000000,296.000000) scale(0.100000,-0.100000)"
fill="#000000" stroke="none">
<path d="M1226 2285 c69 -22 120 -52 172 -103 103 -100 148 -252 123 -419 -24
-172 -139 -334 -299 -424 -31 -18 -58 -33 -60 -35 -3 -2 2 -20 73 -239 23 -71
61 -190 85 -262 l43 -133 47 0 c61 0 74 16 94 110 9 41 30 140 46 220 17 80
34 160 37 178 l6 32 106 0 107 0 38 -122 c22 -68 57 -179 78 -248 21 -69 43
-135 48 -148 l10 -22 212 2 c209 3 213 3 216 24 3 19 -40 159 -163 531 l-23
71 58 36 c204 126 311 302 311 515 1 213 -124 388 -308 436 -79 21 -1123 21
-1057 0z m864 -340 c51 -26 74 -70 74 -141 0 -52 -5 -71 -30 -110 -35 -57 -99
-109 -152 -124 -20 -5 -99 -10 -175 -10 -137 0 -137 0 -133 23 3 12 12 54 20
92 8 39 25 118 37 178 l22 107 154 0 c117 0 161 -4 183 -15z"/>
<path d="M690 1953 c0 -4 -18 -93 -40 -196 -22 -103 -40 -190 -40 -193 0 -4
71 -4 158 -2 171 4 188 9 257 70 92 80 108 219 36 292 l-31 31 -170 3 c-94 2
-170 0 -170 -5z"/>
<path d="M530 1203 c0 -5 -16 -82 -35 -173 -20 -91 -42 -196 -49 -235 -8 -38
-17 -82 -21 -97 l-7 -28 246 0 c169 0 246 3 246 11 0 6 -11 43 -24 82 -13 40
-40 126 -61 192 -20 66 -46 150 -58 188 l-21 67 -108 0 c-59 0 -108 -3 -108
-7z"/>
</g>
</svg>
